<svg xmlns="http://www.w3.org/2000/svg" viewBox="0 0 180 50">
  <defs>
    <style>
      .logo-color { fill: #FF595A; }
    </style>
  </defs>

  <!-- Swoosh mark -->
  <path class="logo-color" d="M5 38 C8 20, 25 8, 38 18 C28 22, 18 30, 12 42 C10 42, 7 41, 5 38 Z"/>

  <!-- Letter 'a' -->
  <path class="logo-color" d="M45 32 C45 26, 50 22, 58 22 C66 22, 70 26, 70 32 L70 42 L65 42 L65 40 C63 42, 60 43, 56 43 C50 43, 45 40, 45 35 C45 30, 50 28, 56 28 C60 28, 63 29, 65 30 L65 32 C65 28, 62 26, 58 26 C52 26, 50 29, 50 32 Z M50 35 C50 38, 52 40, 56 40 C60 40, 65 38, 65 35 C65 33, 62 31, 56 31 C52 31, 50 33, 50 35 Z"/>

  <!-- Letter 's' -->
  <path class="logo-color" d="M78 35 C78 38, 82 40, 88 40 C92 40, 95 39, 95 36 C95 34, 93 33, 88 32 C81 31, 78 29, 78 25 C78 21, 82 18, 90 18 C96 18, 100 20, 100 24 L95 24 C95 22, 93 21, 89 21 C84 21, 82 23, 82 25 C82 27, 84 28, 89 29 C96 30, 100 32, 100 37 C100 42, 95 44, 88 44 C80 44, 75 41, 75 36 Z"/>

  <!-- Letter 'a' -->
  <path class="logo-color" d="M108 32 C108 26, 113 22, 121 22 C129 22, 133 26, 133 32 L133 42 L128 42 L128 40 C126 42, 123 43, 119 43 C113 43, 108 40, 108 35 C108 30, 113 28, 119 28 C123 28, 126 29, 128 30 L128 32 C128 28, 125 26, 121 26 C115 26, 113 29, 113 32 Z M113 35 C113 38, 115 40, 119 40 C123 40, 128 38, 128 35 C128 33, 125 31, 119 31 C115 31, 113 33, 113 35 Z"/>

  <!-- Letter 'p' -->
  <path class="logo-color" d="M140 22 L145 22 L145 24 C147 21, 150 19, 155 19 C163 19, 168 24, 168 32 C168 40, 163 45, 155 45 C150 45, 147 43, 145 41 L145 52 L140 52 Z M145 32 C145 38, 149 41, 154 41 C160 41, 163 37, 163 32 C163 27, 160 23, 154 23 C149 23, 145 26, 145 32 Z"/>
</svg>
